<?xml version="1.0" encoding="utf-8"?>
<!-- Generator: Adobe Illustrator 23.0.3, SVG Export Plug-In . SVG Version: 6.00 Build 0)  -->
<svg version="1.1" xmlns="http://www.w3.org/2000/svg" xmlns:xlink="http://www.w3.org/1999/xlink" x="0px" y="0px"
	 viewBox="0 0 451.5 327.1" style="enable-background:new 0 0 451.5 327.1;" xml:space="preserve">
<style type="text/css">
	.st0{fill:#FEDD48;}
	.st1{fill:#B5CD41;}
	.st2{fill:#F90F17;}
	.st3{fill:#39D368;}
	.st4{fill:#FFFFFF;}
</style>
<g id="meter">
	<g>
		<path class="st0" d="M106.4,120.1l53.1,50.5c16.2-13.2,36.7-21.6,59.1-23V73.8C175.3,75.5,136.1,92.7,106.4,120.1z"/>
		<path class="st1" d="M232.9,73.8v73.7c22.4,1.5,42.8,9.9,59.1,23l53.1-50.5C315.4,92.7,276.1,75.5,232.9,73.8z"/>
		<path class="st2" d="M96.3,130.2c-26.7,29-43.7,67.1-45.7,109.4l-0.2,3.8h72.2l0-0.3c1.1-24.2,11-46,26.5-62.7L96.3,130.2z"/>
		<path class="st3" d="M355.2,130.2l-52.8,50.1c15.5,16.7,25.3,38.5,26.5,62.7l0,0.3h72.2l-0.2-3.8
			C398.9,197.3,381.9,159.2,355.2,130.2z"/>
	</g>
</g>
<g id="pointer">
	<g>
		<g>
			<polygon points="355.1,214.4 191.9,210.1 192.5,229.6 			"/>
		</g>
		<g>
			<circle class="st4" cx="225.7" cy="218.7" r="13.3"/>
			<path d="M225.7,233c-7.7,0-14.1-6.1-14.3-13.9c-0.3-7.9,6-14.5,13.9-14.8c3.8-0.1,7.5,1.2,10.3,3.9c2.8,2.6,4.4,6.2,4.5,10
				c0.3,7.9-6,14.5-13.9,14.8C226,233,225.9,233,225.7,233z M213.4,219.1c0.2,6.8,6,12.2,12.7,11.9c6.8-0.2,12.1-5.9,11.9-12.7
				c-0.2-6.8-6-12.2-12.7-11.9C218.5,206.6,213.2,212.3,213.4,219.1z"/>
		</g>
	</g>
</g>
</svg>
