<svg id="Layer_1" data-name="Layer 1" xmlns="http://www.w3.org/2000/svg" viewBox="0 0 40.93 45.58"><defs><style>.cls-1{fill:#ff4d4d;}</style></defs><title>asset-</title><g id="xQ4w2U.tif"><path class="cls-1" d="M21.51,7.75A1.81,1.81,0,0,1,22.78,9a2.51,2.51,0,0,1,0,.61V29.08a.71.71,0,0,0,0,.35c.12,0,.17-.13.25-.21l5.93-6a1.68,1.68,0,0,1,2.48-.08l.87.87a1.7,1.7,0,0,1,0,2.57l-9.81,9.81-.87.87a1.68,1.68,0,0,1-2.46,0q-5.4-5.37-10.77-10.76a2.18,2.18,0,0,1-.5-.89V25a2.15,2.15,0,0,1,.46-.84c.34-.35.69-.7,1-1a1.58,1.58,0,0,1,.82-.42,1.69,1.69,0,0,1,1.57.51l5.46,5.44c.23.24.48.46.78.74V29c0-6.45,0-12.9,0-19.35a1.84,1.84,0,0,1,1.26-1.92Z"/></g></svg>