<svg id="Layer_1" data-name="Layer 1" xmlns="http://www.w3.org/2000/svg" viewBox="0 0 386.49 347"><defs><style>.cls-1{fill:#fcfcfc;}.cls-2{fill:#69c9d6;}.cls-3{fill:#5dbac1;}.cls-4{fill:#e5e5e5;}</style></defs><title>asset-</title><circle class="cls-1" cx="199.5" cy="173.5" r="173.5"/><polygon class="cls-2" points="12.51 120.15 225.89 283 386.49 64 12.51 120.15"/><polygon class="cls-3" points="102.35 283 58.73 155.43 386.49 64 102.35 188.72 102.35 283"/><polygon class="cls-2" points="164.65 236.26 102.35 283 102.35 188.72 164.65 236.26"/><polygon class="cls-3" points="164.65 236.26 148.76 248.19 102.35 188.72 164.65 236.26"/><path class="cls-4" d="M122,51.9a18.56,18.56,0,0,0-17,11.16,26.67,26.67,0,0,0-51.13,1.87A18.55,18.55,0,0,0,19,63.38,10.5,10.5,0,0,0,0,68H140.43A18.57,18.57,0,0,0,122,51.9Z"/><path class="cls-4" d="M251.4,297.9a18.56,18.56,0,0,1,17,11.16,26.67,26.67,0,0,1,51.14,1.87,18.54,18.54,0,0,1,34.85-1.55,10.5,10.5,0,0,1,19,4.62H233A18.57,18.57,0,0,1,251.4,297.9Z"/><path class="cls-4" d="M259.26,56h87.17A18.56,18.56,0,0,0,311,51.06a26.67,26.67,0,0,0-51.13,1.87Z"/></svg>