<svg id="Layer_1" data-name="Layer 1" xmlns="http://www.w3.org/2000/svg" viewBox="0 0 420.43 360.79"><defs><style>.cls-1{fill:#fcfcfc;}.cls-2{fill:#e5e5e5;}.cls-3{fill:#69c9d6;}.cls-4{fill:#5dbac1;}</style></defs><title>asset-</title><circle class="cls-1" cx="219.5" cy="187.29" r="173.5"/><path class="cls-2" d="M333.26,195.79h87.17A18.56,18.56,0,0,0,385,190.85a26.67,26.67,0,0,0-51.13,1.87Z"/><path class="cls-3" d="M219.5,0,171.27,58.12A110.94,110.94,0,0,0,145.71,129V293.9a12.62,12.62,0,0,0,12.61,12.62H280.68a12.62,12.62,0,0,0,12.61-12.62V129a110.94,110.94,0,0,0-25.56-70.84Zm0,170.67a34.25,34.25,0,1,1,34.25-34.25A34.26,34.26,0,0,1,219.5,170.67Zm0,68.54a22,22,0,1,1,22-22A22,22,0,0,1,219.5,239.21Z"/><polygon class="cls-3" points="145.71 199.62 88 244.08 88 340.58 127.73 283.81 145.71 283.81 145.71 199.62"/><polygon class="cls-3" points="293.29 199.62 351 244.08 351 340.58 311.27 283.81 293.29 283.81 293.29 199.62"/><polygon class="cls-4" points="293.29 199.62 311.27 283.81 293.29 283.81 293.29 199.62"/><path class="cls-4" d="M219.5,0l36.34,63.27a110.89,110.89,0,0,1,14.75,55.25v188h10.09a12.62,12.62,0,0,0,12.61-12.62V129a110.94,110.94,0,0,0-25.56-70.84Z"/><path class="cls-2" d="M106.22,113.77a16.15,16.15,0,0,0-14.81,9.72,23.22,23.22,0,0,0-44.52,1.63,16.14,16.14,0,0,0-30.34-1.35,9.14,9.14,0,0,0-16.55,4H122.24A16.18,16.18,0,0,0,106.22,113.77Z"/><circle class="cls-2" cx="323.5" cy="102.29" r="25.5"/><circle class="cls-2" cx="142.5" cy="34.29" r="20.5"/></svg>