<svg id="Layer_1" data-name="Layer 1" xmlns="http://www.w3.org/2000/svg" viewBox="0 0 40.93 45.58"><defs><style>.cls-1{fill:#45d05b;}</style></defs><title>asset-</title><g id="xQ4w2U.tif"><path class="cls-1" d="M19.42,37.83a1.83,1.83,0,0,1-1.27-1.27,2.54,2.54,0,0,1,0-.61q0-9.74,0-19.45a.83.83,0,0,0,0-.35c-.12,0-.18.13-.25.21q-3,3-5.93,6a1.68,1.68,0,0,1-1.59.56,1.61,1.61,0,0,1-.89-.47l-.87-.87a1.7,1.7,0,0,1,0-2.57l9.81-9.81.87-.87a1.68,1.68,0,0,1,2.46,0L32.46,19.05a2.21,2.21,0,0,1,.5.88v.65a2,2,0,0,1-.45.84c-.35.35-.69.7-1,1a1.62,1.62,0,0,1-.82.42,1.7,1.7,0,0,1-1.58-.51l-5.45-5.44c-.24-.24-.49-.46-.78-.74v.37c0,6.45,0,12.9,0,19.35a1.85,1.85,0,0,1-1.26,1.92Z"/></g></svg>