<svg id="Layer_1" data-name="Layer 1" xmlns="http://www.w3.org/2000/svg" viewBox="0 0 40.93 45.58"><defs><style>.cls-1{fill:#747474;}.cls-2{fill:#69c9d6;}</style></defs><title>asset-</title><g id="HYgCP4.tif"><path class="cls-1" d="M20.45,28.77H18.06a1.49,1.49,0,0,1-.72-.16,1.23,1.23,0,0,1-.67-.92A7.24,7.24,0,0,0,15,24.2l-.51-.54a7,7,0,0,1-.94-1.22,7.43,7.43,0,0,1-1.1-4.31,7.5,7.5,0,0,1,.27-1.63,7.28,7.28,0,0,1,1.32-2.62,7.91,7.91,0,0,1,1.25-1.27,8.27,8.27,0,0,1,2.58-1.39,9.09,9.09,0,0,1,1.78-.37,7.75,7.75,0,0,1,1.18,0,8.2,8.2,0,0,1,2,.33,8.11,8.11,0,0,1,2.51,1.26,7.66,7.66,0,0,1,1.38,1.29,8,8,0,0,1,.95,1.44,7.82,7.82,0,0,1,.71,2.21,8.07,8.07,0,0,1,.09,1.47,7.61,7.61,0,0,1-.35,1.95,7.82,7.82,0,0,1-.47,1.16,8.24,8.24,0,0,1-.83,1.28c-.19.22-.38.44-.59.65a7,7,0,0,0-1.4,2,6.79,6.79,0,0,0-.56,1.81,1.3,1.3,0,0,1-1.11,1.09l-.33,0ZM14.7,18.43a.82.82,0,0,0,.17.61.87.87,0,0,0,.84.36.88.88,0,0,0,.76-.71c0-.17,0-.34,0-.51a3.92,3.92,0,0,1,.65-1.75,3.4,3.4,0,0,1,.8-.85,4,4,0,0,1,2.3-.86,2.73,2.73,0,0,0,.41,0A.85.85,0,0,0,20.54,13a5.09,5.09,0,0,0-.78,0,5.69,5.69,0,0,0-2,.6,5.64,5.64,0,0,0-2.71,3A6,6,0,0,0,14.7,18.43Z"/><path class="cls-1" d="M20.45,29.91h2.77a.94.94,0,0,1,.71.3.85.85,0,0,1,.23.56c0,.35,0,.7,0,1a1.35,1.35,0,0,1-.35.87,1.49,1.49,0,0,1-.83.48.12.12,0,0,0-.11.1c-.07.24-.14.48-.2.72a1.09,1.09,0,0,1-1,.79H19.26a1.09,1.09,0,0,1-1-.79c-.07-.23-.13-.47-.19-.71a.15.15,0,0,0-.13-.12A1.43,1.43,0,0,1,16.78,32a1.27,1.27,0,0,1,0-.34v-.82a.93.93,0,0,1,.44-.81.88.88,0,0,1,.5-.14Z"/></g><circle class="cls-2" cx="26.84" cy="15.85" r="4"/></svg>