<svg xmlns="http://www.w3.org/2000/svg" width="25" height="30.077" viewBox="0 0 25 30.077">
  <g id="xQ4w2U.tif" transform="translate(-1216.683 -7.751)">
    <g id="Group_260" data-name="Group 260">
      <path id="Path_279" data-name="Path 279" d="M1228.136,37.828a1.805,1.805,0,0,1-1.266-1.271,2.293,2.293,0,0,1-.044-.612q0-9.724,0-19.448a.711.711,0,0,0-.027-.344c-.117.031-.172.13-.245.2q-2.97,2.982-5.935,5.968a1.679,1.679,0,0,1-2.475.085c-.292-.289-.583-.578-.872-.87a1.689,1.689,0,0,1,.01-2.567q4.9-4.906,9.806-9.811c.29-.29.577-.584.872-.87a1.678,1.678,0,0,1,2.464,0q5.386,5.376,10.763,10.762a2.209,2.209,0,0,1,.5.884v.645a2.1,2.1,0,0,1-.456.842c-.344.347-.687.695-1.038,1.035a1.564,1.564,0,0,1-.822.424,1.685,1.685,0,0,1-1.574-.507q-2.727-2.725-5.455-5.448c-.237-.235-.484-.459-.78-.739v.374c0,6.45-.011,12.9.012,19.35a1.842,1.842,0,0,1-1.264,1.918Z" fill="#45d05b"/>
    </g>
  </g>
</svg>
