<svg xmlns="http://www.w3.org/2000/svg" width="18.374" height="23.957" viewBox="0 0 18.374 23.957">
  <g id="Group_369" data-name="Group 369" transform="translate(-12.463 -10.811)">
    <g id="Group_368" data-name="Group 368">
      <g id="HYgCP4.tif" transform="translate(-1148.72 -56)">
        <g id="Group_261" data-name="Group 261">
          <path id="Path_280" data-name="Path 280" d="M1169.174,84.768h-2.395a1.487,1.487,0,0,1-.724-.16,1.239,1.239,0,0,1-.668-.919,7.083,7.083,0,0,0-.573-1.843,6.906,6.906,0,0,0-1.077-1.643c-.164-.185-.34-.359-.51-.539a7.521,7.521,0,0,1-1.769-7.168,7.454,7.454,0,0,1,1.323-2.618,7.588,7.588,0,0,1,1.253-1.268,8.1,8.1,0,0,1,2.578-1.391,8.966,8.966,0,0,1,1.78-.369,7.49,7.49,0,0,1,1.179-.029,8.164,8.164,0,0,1,1.973.333,8.023,8.023,0,0,1,2.509,1.252,7.912,7.912,0,0,1,1.373,1.3,7.544,7.544,0,0,1,.951,1.442,7.4,7.4,0,0,1,.709,2.21,7.191,7.191,0,0,1,.09,1.471,7.515,7.515,0,0,1-1.65,4.381,8.2,8.2,0,0,1-.583.653,6.987,6.987,0,0,0-1.4,1.987,6.821,6.821,0,0,0-.561,1.816,1.3,1.3,0,0,1-1.109,1.084,2.286,2.286,0,0,1-.33.022Zm-5.75-10.34a.8.8,0,0,0,.166.613.9.9,0,0,0,1.6-.349c.027-.17.013-.343.03-.514a3.893,3.893,0,0,1,.647-1.752,3.582,3.582,0,0,1,.8-.851,4.049,4.049,0,0,1,2.306-.86,2.653,2.653,0,0,0,.408-.026.848.848,0,0,0-.124-1.679,4.861,4.861,0,0,0-.782.033,5.739,5.739,0,0,0-1.978.6,5.675,5.675,0,0,0-1.962,1.63,5.311,5.311,0,0,0-.744,1.333A5.637,5.637,0,0,0,1163.424,74.428Z" fill="#747474"/>
          <path id="Path_281" data-name="Path 281" d="M1169.174,85.912h2.77a.917.917,0,0,1,.7.3.844.844,0,0,1,.238.567c.006.346.009.693,0,1.039a1.334,1.334,0,0,1-.355.864,1.438,1.438,0,0,1-.828.479.12.12,0,0,0-.112.1c-.064.241-.135.48-.2.721a1.071,1.071,0,0,1-1.023.786q-1.191,0-2.382,0a1.074,1.074,0,0,1-1.012-.782c-.064-.236-.13-.472-.188-.71a.143.143,0,0,0-.128-.121,1.465,1.465,0,0,1-1.157-1.128,1.533,1.533,0,0,1-.034-.344c0-.273,0-.547,0-.82a.917.917,0,0,1,.935-.949Z" fill="#747474"/>
        </g>
      </g>
      <circle id="Ellipse_36" data-name="Ellipse 36" cx="4" cy="4" r="4" transform="translate(22.838 11.854)" fill="#69c9d6"/>
    </g>
  </g>
</svg>
