<svg xmlns="http://www.w3.org/2000/svg" width="25" height="30.077" viewBox="0 0 25 30.077">
  <g id="Group_259" data-name="Group 259" transform="translate(-1216.683 -63.751)">
    <path id="Path_278" data-name="Path 278" d="M1230.23,63.751a1.8,1.8,0,0,1,1.266,1.27,2.3,2.3,0,0,1,.044.612q0,9.724,0,19.448a.714.714,0,0,0,.028.345c.117-.032.172-.13.245-.2q2.97-2.982,5.935-5.969a1.681,1.681,0,0,1,2.475-.085q.438.434.872.871a1.688,1.688,0,0,1-.01,2.566q-4.9,4.906-9.806,9.811c-.29.29-.577.584-.872.87a1.679,1.679,0,0,1-2.464,0q-5.386-5.376-10.763-10.763a2.2,2.2,0,0,1-.5-.884V81a2.1,2.1,0,0,1,.456-.842c.344-.347.687-.695,1.038-1.035A1.564,1.564,0,0,1,1219,78.7a1.685,1.685,0,0,1,1.574.507q2.727,2.726,5.455,5.448c.237.235.484.459.78.739v-.373c0-6.451.011-12.9-.012-19.351a1.839,1.839,0,0,1,1.264-1.917Z" fill="#ff4d4d"/>
  </g>
</svg>
